# xmcd
#
# Track frame offsets:
#	183
#	17710
#	28273
#	38668
#	53223
#	64710
#	77498
#	97955
#	110545
#	125200
#	137563
#	155950
#	167938
#	179140
#	193308
#	214150
#	230600
#
# Disc length: 3354
#
# Revision: 1
# Processed by: cddbd v1.5.1PL0 Copyright (c) Steve Scherf et al.
# Submitted via: Grip 2.96
# Normalized: r0:DSETVAR1,TDELIM( - )
#
DISCID=fc0d1811
DTITLE=Various Artist - Country Stars - Live in concert - Vol.1
DYEAR=1900
DGENRE=
TTITLE0=Tanya Tucker - The night they drove old Dixie down
TTITLE1=Stella Parton - Danger of a stranger
TTITLE2=Bellamy Brothers - Let Your love flow
TTITLE3=George Jones - Who's gonna fill their shoes
TTITLE4=Tammy Wynette - D.I.V.O.R.C.E.
TTITLE5=Lynn Anderson - Rose garden
TTITLE6=Nitty Gritty Dirt Band - Mr. Bojangles
TTITLE7=Mickey Gilley - Headache tomorrow, Headache tonight
TTITLE8=Lynn Anderson - Cry
TTITLE9=Bobby Bare - Tequila Sheila
TTITLE10=Hoyt Axton - Wild Bull Rider
TTITLE11=Mel Tillis - I believe in You
TTITLE12=George Jones - The race is on
TTITLE13=Ronny Robbins - El Paso
TTITLE14=Tanya Tucker - Baby I'm Yours
TTITLE15=Mickey Gilley - You need a Lady in Your life
TTITLE16=Tammy Wynette - Medley (Amazing Grace,I'll fly away,Will the circle be unbroken, I saw the light)
EXTD=
EXTT0=
EXTT1=
EXTT2=
EXTT3=
EXTT4=
EXTT5=
EXTT6=
EXTT7=
EXTT8=
EXTT9=
EXTT10=
EXTT11=
EXTT12=
EXTT13=
EXTT14=
EXTT15=
EXTT16=
PLAYORDER=
